<svg width="28" height="26" viewBox="0 0 28 26" version="1.1" xmlns="http://www.w3.org/2000/svg" xmlns:xlink="http://www.w3.org/1999/xlink">
<title>Group</title>
<desc>Created using Figma</desc>
<g id="Canvas" transform="translate(-1435 -837)">
<g id="Group">
<g id="Group">
<g id="Group">
<g id="Vector">
<use xlink:href="#path0_fill" transform="translate(1435 837)" fill="#787878"/>
</g>
<g id="Vector">
<use xlink:href="#path1_fill" transform="translate(1438.73 846.283)" fill="#787878"/>
</g>
<g id="Vector">
<use xlink:href="#path2_fill" transform="translate(1444.34 846.283)" fill="#787878"/>
</g>
<g id="Vector">
<use xlink:href="#path3_fill" transform="translate(1449.93 846.283)" fill="#787878"/>
</g>
<g id="Vector">
<use xlink:href="#path4_fill" transform="translate(1455.53 846.283)" fill="#787878"/>
</g>
<g id="Vector">
<use xlink:href="#path5_fill" transform="translate(1438.73 851.388)" fill="#787878"/>
</g>
<g id="Vector">
<use xlink:href="#path6_fill" transform="translate(1444.34 851.388)" fill="#787878"/>
</g>
<g id="Vector">
<use xlink:href="#path7_fill" transform="translate(1449.93 851.388)" fill="#787878"/>
</g>
<g id="Vector">
<use xlink:href="#path8_fill" transform="translate(1455.53 851.388)" fill="#787878"/>
</g>
<g id="Vector">
<use xlink:href="#path9_fill" transform="translate(1438.73 856.5)" fill="#787878"/>
</g>
<g id="Vector">
<use xlink:href="#path10_fill" transform="translate(1444.34 856.5)" fill="#787878"/>
</g>
<g id="Vector">
<use xlink:href="#path11_fill" transform="translate(1449.93 856.5)" fill="#787878"/>
</g>
<g id="Vector">
<use xlink:href="#path12_fill" transform="translate(1455.53 856.5)" fill="#787878"/>
</g>
</g>
</g>
</g>
</g>
<defs>
<path id="path0_fill" d="M 26.5989 1.85872L 26.5544 1.85872C 26.3431 0.785532 25.4146 0 24.2693 0C 23.1239 0 22.1898 0.785532 21.9786 1.85872L 21.4226 1.85872C 21.2113 0.785532 20.2828 0 19.1319 0C 17.9809 0 17.058 0.785532 16.8467 1.85872L 16.2907 1.85872C 16.0794 0.785532 15.1454 0 14 0C 12.8546 0 11.9206 0.785532 11.7093 1.85872L 11.1533 1.85872C 10.942 0.785532 10.0135 0 8.86815 0C 7.7228 0 6.78872 0.785532 6.57744 1.85872L 6.02145 1.85872C 5.81017 0.785532 4.88165 0 3.7363 0C 2.59095 0 1.65687 0.785532 1.44559 1.85872L 1.40111 1.85872C 0.606037 1.85872 0 2.4617 0 3.25277L 0 6.96468L 0 24.6115C 0 25.397 0.606037 26 1.40111 26L 26.5989 26C 27.394 26 28 25.397 28 24.606L 28 6.95915L 28 3.25277C 28 2.4617 27.394 1.85872 26.5989 1.85872ZM 24.2693 0.929362C 24.8975 0.929362 25.4091 1.30553 25.5925 1.85872L 22.9404 1.85872C 23.1295 1.30553 23.641 0.929362 24.2693 0.929362ZM 19.1319 0.929362C 19.7601 0.929362 20.2716 1.30553 20.4551 1.85872L 17.803 1.85872C 17.9921 1.30553 18.5036 0.929362 19.1319 0.929362ZM 14 0.929362C 14.6283 0.929362 15.1398 1.30553 15.3233 1.85872L 12.6767 1.85872C 12.8602 1.30553 13.3717 0.929362 14 0.929362ZM 8.86815 0.929362C 9.49643 0.929362 10.0079 1.30553 10.1914 1.85872L 7.53932 1.85872C 7.72836 1.30553 8.23987 0.929362 8.86815 0.929362ZM 3.73074 0.929362C 4.35901 0.929362 4.87053 1.30553 5.05401 1.85872L 2.40747 1.85872C 2.59651 1.30553 3.10246 0.929362 3.73074 0.929362ZM 0.934075 3.25277C 0.934075 2.97617 1.16759 2.78809 1.40111 2.78809L 5.05957 2.78809C 4.87609 3.33574 4.36457 3.71745 3.7363 3.71745C 3.4583 3.71745 3.26926 3.90553 3.26926 4.18213C 3.26926 4.45872 3.50278 4.64681 3.7363 4.64681C 4.88165 4.64681 5.81573 3.86128 6.02701 2.78809L 10.197 2.78809C 10.0135 3.33574 9.50199 3.71745 8.87371 3.71745C 8.59571 3.71745 8.40667 3.90553 8.40667 4.18213C 8.40667 4.45872 8.59571 4.64681 8.87371 4.64681C 10.0191 4.64681 10.9531 3.86128 11.1644 2.78809L 15.3344 2.78809C 15.1509 3.33574 14.6394 3.71745 14.0111 3.71745C 13.7331 3.71745 13.5441 3.90553 13.5441 4.18213C 13.5441 4.45872 13.7331 4.64681 14.0111 4.64681C 15.1565 4.64681 16.0905 3.86128 16.3018 2.78809L 20.4718 2.78809C 20.2883 3.33574 19.7768 3.71745 19.1485 3.71745C 18.8705 3.71745 18.6815 3.90553 18.6815 4.18213C 18.6815 4.45872 18.8705 4.64681 19.1485 4.64681C 20.2939 4.64681 21.228 3.86128 21.4392 2.78809L 25.6092 2.78809C 25.4257 3.33574 24.9142 3.71745 24.2859 3.71745C 24.0079 3.71745 23.8189 3.90553 23.8189 4.18213C 23.8189 4.45872 24.0079 4.64681 24.2859 4.64681C 25.4313 4.64681 26.3654 3.86128 26.5766 2.78809L 26.6211 2.78809C 26.8991 2.78809 27.0882 2.97617 27.0882 3.25277L 27.0882 6.50553L 0.956315 6.50553L 0.956315 3.25277L 0.934075 3.25277ZM 27.0659 24.6115C 27.0659 24.8881 26.8769 25.0762 26.5989 25.0762L 1.40111 25.0762C 1.12311 25.0762 0.934075 24.8881 0.934075 24.6115L 0.934075 7.42936L 27.0659 7.42936L 27.0659 24.6115Z"/>
<path id="path1_fill" d="M 0.467037 3.71745L 3.26926 3.71745C 3.54726 3.71745 3.7363 3.52936 3.7363 3.25277L 3.7363 0.464681C 3.7363 0.188085 3.54726 1.68821e-07 3.26926 1.68821e-07L 0.467037 1.68821e-07C 0.189039 1.68821e-07 -8.48384e-08 0.188085 -8.48384e-08 0.464681L -8.48384e-08 3.25277C -8.48384e-08 3.53489 0.189039 3.71745 0.467037 3.71745ZM 0.934075 0.934893L 2.80222 0.934893L 2.80222 2.79362L 0.934075 2.79362L 0.934075 0.934893Z"/>
<path id="path2_fill" d="M 0.467038 3.71745L 3.26926 3.71745C 3.54726 3.71745 3.7363 3.52936 3.7363 3.25277L 3.7363 0.464681C 3.7363 0.188085 3.54726 1.68821e-07 3.26926 1.68821e-07L 0.467038 1.68821e-07C 0.189039 1.68821e-07 -3.39354e-07 0.188085 -3.39354e-07 0.464681L -3.39354e-07 3.25277C -3.39354e-07 3.53489 0.183479 3.71745 0.467038 3.71745ZM 0.934075 0.934893L 2.80222 0.934893L 2.80222 2.79362L 0.934075 2.79362L 0.934075 0.934893Z"/>
<path id="path3_fill" d="M 0.467037 3.71745L 3.26926 3.71745C 3.54726 3.71745 3.7363 3.52936 3.7363 3.25277L 3.7363 0.464681C 3.7363 0.188085 3.54726 1.68821e-07 3.26926 1.68821e-07L 0.467037 1.68821e-07C 0.189039 1.68821e-07 3.39354e-07 0.188085 3.39354e-07 0.464681L 3.39354e-07 3.25277C 3.39354e-07 3.53489 0.183479 3.71745 0.467037 3.71745ZM 0.934074 0.934893L 2.80222 0.934893L 2.80222 2.79362L 0.934074 2.79362L 0.934074 0.934893Z"/>
<path id="path4_fill" d="M 0.467038 3.71745L 3.26926 3.71745C 3.54726 3.71745 3.7363 3.52936 3.7363 3.25277L 3.7363 0.464681C 3.7363 0.188085 3.54726 1.68821e-07 3.26926 1.68821e-07L 0.467038 1.68821e-07C 0.18904 1.68821e-07 -6.78707e-07 0.188085 -6.78707e-07 0.464681L -6.78707e-07 3.25277C -6.78707e-07 3.53489 0.18904 3.71745 0.467038 3.71745ZM 0.934075 0.934893L 2.80222 0.934893L 2.80222 2.79362L 0.934075 2.79362L 0.934075 0.934893Z"/>
<path id="path5_fill" d="M 0.467037 3.71745L 3.26926 3.71745C 3.54726 3.71745 3.7363 3.52936 3.7363 3.25277L 3.7363 0.464681C 3.7363 0.188085 3.54726 3.37641e-07 3.26926 3.37641e-07L 0.467037 3.37641e-07C 0.189039 3.37641e-07 -8.48384e-08 0.188085 -8.48384e-08 0.464681L -8.48384e-08 3.2583C -8.48384e-08 3.53489 0.189039 3.71745 0.467037 3.71745ZM 0.934075 0.934894L 2.80222 0.934894L 2.80222 2.79362L 0.934075 2.79362L 0.934075 0.934894Z"/>
<path id="path6_fill" d="M 0.467038 3.71745L 3.26926 3.71745C 3.54726 3.71745 3.7363 3.52936 3.7363 3.25277L 3.7363 0.464681C 3.7363 0.188085 3.54726 3.37641e-07 3.26926 3.37641e-07L 0.467038 3.37641e-07C 0.189039 3.37641e-07 -3.39354e-07 0.188085 -3.39354e-07 0.464681L -3.39354e-07 3.2583C -3.39354e-07 3.53489 0.183479 3.71745 0.467038 3.71745ZM 0.934075 0.934894L 2.80222 0.934894L 2.80222 2.79362L 0.934075 2.79362L 0.934075 0.934894Z"/>
<path id="path7_fill" d="M 0.467037 3.71745L 3.26926 3.71745C 3.54726 3.71745 3.7363 3.52936 3.7363 3.25277L 3.7363 0.464681C 3.7363 0.188085 3.54726 3.37641e-07 3.26926 3.37641e-07L 0.467037 3.37641e-07C 0.189039 3.37641e-07 3.39354e-07 0.188085 3.39354e-07 0.464681L 3.39354e-07 3.2583C 3.39354e-07 3.53489 0.183479 3.71745 0.467037 3.71745ZM 0.934074 0.934894L 2.80222 0.934894L 2.80222 2.79362L 0.934074 2.79362L 0.934074 0.934894Z"/>
<path id="path8_fill" d="M 0.467038 3.71745L 3.26926 3.71745C 3.54726 3.71745 3.7363 3.52936 3.7363 3.25277L 3.7363 0.464681C 3.7363 0.188085 3.54726 3.37641e-07 3.26926 3.37641e-07L 0.467038 3.37641e-07C 0.18904 3.37641e-07 -6.78707e-07 0.188085 -6.78707e-07 0.464681L -6.78707e-07 3.2583C -6.78707e-07 3.53489 0.18904 3.71745 0.467038 3.71745ZM 0.934075 0.934894L 2.80222 0.934894L 2.80222 2.79362L 0.934075 2.79362L 0.934075 0.934894Z"/>
<path id="path9_fill" d="M 0.467037 3.71745L 3.26926 3.71745C 3.54726 3.71745 3.7363 3.52936 3.7363 3.25277L 3.7363 0.464681C 3.7363 0.188085 3.54726 -3.14453e-15 3.26926 -3.14453e-15L 0.467037 -3.14453e-15C 0.189039 -3.14453e-15 -8.48384e-08 0.188085 -8.48384e-08 0.464681L -8.48384e-08 3.25277C -8.48384e-08 3.52936 0.189039 3.71745 0.467037 3.71745ZM 0.934075 0.929361L 2.80222 0.929361L 2.80222 2.78808L 0.934075 2.78808L 0.934075 0.929361Z"/>
<path id="path10_fill" d="M 0.467038 3.71745L 3.26926 3.71745C 3.54726 3.71745 3.7363 3.52936 3.7363 3.25277L 3.7363 0.464681C 3.7363 0.188085 3.54726 -3.14453e-15 3.26926 -3.14453e-15L 0.467038 -3.14453e-15C 0.189039 -3.14453e-15 -3.39354e-07 0.188085 -3.39354e-07 0.464681L -3.39354e-07 3.25277C -3.39354e-07 3.52936 0.183479 3.71745 0.467038 3.71745ZM 0.934075 0.929361L 2.80222 0.929361L 2.80222 2.78808L 0.934075 2.78808L 0.934075 0.929361Z"/>
<path id="path11_fill" d="M 0.467037 3.71745L 3.26926 3.71745C 3.54726 3.71745 3.7363 3.52936 3.7363 3.25277L 3.7363 0.464681C 3.7363 0.188085 3.54726 -3.14453e-15 3.26926 -3.14453e-15L 0.467037 -3.14453e-15C 0.189039 -3.14453e-15 3.39354e-07 0.188085 3.39354e-07 0.464681L 3.39354e-07 3.25277C 3.39354e-07 3.52936 0.183479 3.71745 0.467037 3.71745ZM 0.934074 0.929361L 2.80222 0.929361L 2.80222 2.78808L 0.934074 2.78808L 0.934074 0.929361Z"/>
<path id="path12_fill" d="M 0.467038 3.71745L 3.26926 3.71745C 3.54726 3.71745 3.7363 3.52936 3.7363 3.25277L 3.7363 0.464681C 3.7363 0.188085 3.54726 -3.14453e-15 3.26926 -3.14453e-15L 0.467038 -3.14453e-15C 0.18904 -3.14453e-15 -6.78707e-07 0.188085 -6.78707e-07 0.464681L -6.78707e-07 3.25277C -6.78707e-07 3.52936 0.18904 3.71745 0.467038 3.71745ZM 0.934075 0.929361L 2.80222 0.929361L 2.80222 2.78808L 0.934075 2.78808L 0.934075 0.929361Z"/>
</defs>
</svg>
