<svg width="120" height="120" viewBox="0 0 120 120" version="1.1" xmlns="http://www.w3.org/2000/svg" xmlns:xlink="http://www.w3.org/1999/xlink">
<title>Group</title>
<desc>Created using Figma</desc>
<g id="Canvas" transform="translate(-1190 -720)">
<g id="Group">
<g id="Ellipse">
<use xlink:href="#path0_fill" transform="translate(1190 720)"/>
</g>
<g id="Group">
<g id="Group">
<g id="Group">
<g id="Vector">
<use xlink:href="#path1_fill" transform="translate(1219 747)" fill="#787878"/>
</g>
<g id="Vector">
<use xlink:href="#path2_fill" transform="translate(1226.09 755.57)" fill="#787878"/>
</g>
</g>
</g>
</g>
</g>
</g>
<defs>
<path id="path0_fill" d="M 120 60C 120 93.1371 93.1371 120 60 120C 26.8629 120 0 93.1371 0 60C 0 26.8629 26.8629 0 60 0C 93.1371 0 120 26.8629 120 60Z"/>
<path id="path1_fill" d="M 59.9825 36.8138L 50.8374 36.8138L 50.8374 34.7672L 57.9597 34.7672C 58.5653 34.7672 58.9772 34.353 58.9772 33.7439C 58.9772 17.4323 46.9976 4.65349 31.5296 4.11749L 31.5296 2.04656L 35.5995 2.04656C 36.2051 2.04656 36.617 1.63238 36.617 1.02328C 36.617 0.414185 36.193 0 35.5874 0L 25.4247 0C 24.8191 0 24.4073 0.414185 24.4073 1.02328C 24.4073 1.63238 24.8191 2.04656 25.4247 2.04656L 29.4946 2.04656L 29.4946 4.10531C 14.0145 4.65349 2.03495 17.4323 2.03495 33.7439C 2.03495 34.353 2.44678 34.7672 3.05242 34.7672L 10.1747 34.7672L 10.1747 36.8138L 1.01747 36.8138C 0.411835 36.8138 0 37.2279 0 37.837L 0 43.9767C 0 44.5858 0.411835 45 1.01747 45L 59.9825 45C 60.5882 45 61 44.5858 61 43.9767L 61 37.837C 61 37.2158 60.5882 36.8138 59.9825 36.8138ZM 30.5 6.13969C 45.0353 6.13969 56.4214 17.6881 56.9301 32.7206L 49.8078 32.7206L 11.168 32.7206L 4.0699 32.7206C 4.57863 17.6881 16.0616 6.13969 30.5 6.13969ZM 12.1976 34.7672L 48.8024 34.7672L 48.8024 36.8138L 12.1976 36.8138L 12.1976 34.7672ZM 58.965 42.9413L 2.03495 42.9413L 2.03495 38.8481L 11.1801 38.8481L 49.8199 38.8481L 58.965 38.8481L 58.965 42.9413Z"/>
<path id="path2_fill" d="M 19.5438 2.0643C 20.0525 1.96684 20.4644 1.34556 20.3554 0.833921C 20.2463 0.322281 19.6407 -0.0919039 19.132 0.0177333C 9.9868 1.65011 2.65857 8.39889 0.01798 17.8033C -0.0789223 18.315 0.223897 18.9241 0.732634 19.0337C 0.829536 19.0337 0.938552 19.0337 1.03545 19.0337C 1.44729 19.0337 1.84701 18.7292 1.95603 18.315C 4.3907 9.83636 11.1012 3.59922 19.5438 2.0643Z"/>
</defs>
</svg>
