<svg width="28" height="22" viewBox="0 0 28 22" version="1.1" xmlns="http://www.w3.org/2000/svg" xmlns:xlink="http://www.w3.org/1999/xlink">
<title>Group</title>
<desc>Created using Figma</desc>
<g id="Canvas" transform="translate(-1577 -77)">
<g id="Group">
<g id="Group">
<g id="Group">
<g id="Vector">
<use xlink:href="#path0_fill" transform="translate(1577.47 77)" fill="#FFFFFF"/>
</g>
</g>
</g>
</g>
</g>
<defs>
<path id="path0_fill" d="M 27.1765 2.60177C 26.1772 3.04425 25.1024 3.34071 23.9743 3.47788C 25.1246 2.79204 26.0084 1.69912 26.4259 0.40708C 25.3466 1.04425 24.1519 1.50442 22.8817 1.75664C 21.8646 0.672566 20.4168 0 18.8135 0C 15.7356 0 13.2351 2.48673 13.2351 5.5531C 13.2351 5.98673 13.284 6.4115 13.3817 6.81858C 8.74941 6.5885 4.64118 4.37611 1.88756 1.01327C 1.4079 1.83628 1.13698 2.78761 1.13698 3.80531C 1.13698 5.73451 2.12295 7.43363 3.61524 8.4292C 2.70033 8.39823 1.84315 8.15044 1.08812 7.73009L 1.08812 7.80089C 1.08812 10.4912 3.01122 12.7389 5.56054 13.2478C 5.0942 13.3717 4.60121 13.4425 4.09046 13.4425C 3.73071 13.4425 3.38429 13.4071 3.04231 13.3407C 3.75292 15.5487 5.80925 17.1549 8.25198 17.1991C 6.34665 18.6903 3.93946 19.5752 1.32796 19.5752C 0.879382 19.5752 0.43525 19.5487 6.61796e-11 19.5C 2.46938 21.0796 5.39621 22 8.54511 22C 18.8001 22 24.4095 13.5354 24.4095 6.19469L 24.3918 5.47345C 25.4843 4.69469 26.4303 3.71681 27.1765 2.60177Z"/>
</defs>
</svg>
