<svg width="23" height="22" viewBox="0 0 23 22" version="1.1" xmlns="http://www.w3.org/2000/svg" xmlns:xlink="http://www.w3.org/1999/xlink">
<title>Group</title>
<desc>Created using Figma</desc>
<g id="Canvas" transform="translate(-1622 -77)">
<g id="Group">
<g id="Group">
<g id="Vector">
<use xlink:href="#path0_fill" transform="translate(1622.76 77)" fill="#FFFFFF"/>
</g>
<g id="Vector">
<use xlink:href="#path1_fill" transform="translate(1628.15 82.3309)" fill="#FFFFFF"/>
</g>
<g id="Vector">
<use xlink:href="#path2_fill" transform="translate(1638.39 80.6797)" fill="#FFFFFF"/>
</g>
</g>
</g>
</g>
<defs>
<path id="path0_fill" d="M 16.0851 0L 6.13705 0C 2.74656 0 0 2.71749 0 6.0721L 0 15.9279C 0 19.2695 2.74656 22 6.13705 22L 16.0982 22C 19.4756 22 22.2353 19.2825 22.2353 15.9279L 22.2353 6.0721C 22.2222 2.71749 19.4625 0 16.0851 0ZM 20.2509 15.9149C 20.2509 18.1903 18.3849 20.0366 16.0851 20.0366L 6.13705 20.0366C 3.8373 20.0366 1.97121 18.1903 1.97121 15.9149L 1.97121 6.0721C 1.97121 3.79669 3.8373 1.95035 6.13705 1.95035L 16.0982 1.95035C 18.398 1.95035 20.2641 3.79669 20.2641 6.0721L 20.2509 15.9149Z"/>
<path id="path1_fill" d="M 5.71652 0C 2.56258 0 0 2.53546 0 5.65603C 0 8.7766 2.56258 11.3251 5.72966 11.3251C 8.89675 11.3251 11.4593 8.7896 11.4593 5.65603C 11.4462 2.53546 8.88361 0 5.71652 0ZM 5.71652 9.37471C 3.65332 9.37471 1.95807 7.7104 1.95807 5.65603C 1.97121 3.61466 3.65332 1.95035 5.71652 1.95035C 7.77973 1.95035 9.47497 3.61466 9.47497 5.66903C 9.47497 7.7104 7.79287 9.37471 5.71652 9.37471Z"/>
<path id="path2_fill" d="M 1.44556 -9.92002e-08C 1.06445 -9.92002e-08 0.696495 0.156028 0.420525 0.416076C 0.144556 0.676123 2.00522e-07 1.05319 2.00522e-07 1.43026C 2.00522e-07 1.80733 0.157697 2.17139 0.420525 2.44444C 0.683354 2.70449 1.06445 2.86052 1.44556 2.86052C 1.82666 2.86052 2.19462 2.70449 2.47059 2.44444C 2.74656 2.1844 2.89111 1.80733 2.89111 1.43026C 2.89111 1.05319 2.73342 0.689125 2.47059 0.416076C 2.20776 0.143026 1.82666 -9.92002e-08 1.44556 -9.92002e-08Z"/>
</defs>
</svg>
