<svg width="18" height="18" viewBox="0 0 18 18" version="1.1" xmlns="http://www.w3.org/2000/svg" xmlns:xlink="http://www.w3.org/1999/xlink">
<title>Group</title>
<desc>Created using Figma</desc>
<g id="Canvas" transform="translate(-1360 -4526)">
<g id="Group">
<g id="Group">
<g id="Vector">
<use xlink:href="#path0_fill" transform="translate(1360 4526)" fill="#A06624"/>
</g>
<g id="Vector">
<use xlink:href="#path1_fill" transform="translate(1364.36 4530.36)" fill="#A06624"/>
</g>
<g id="Vector">
<use xlink:href="#path2_fill" transform="translate(1372.65 4529.01)" fill="#A06624"/>
</g>
</g>
</g>
</g>
<defs>
<path id="path0_fill" d="M 13.0213 0L 4.96809 0C 2.2234 0 0 2.2234 0 4.96809L 0 13.0319C 0 15.766 2.2234 18 4.96809 18L 13.0319 18C 15.766 18 18 15.7766 18 13.0319L 18 4.96809C 17.9894 2.2234 15.7553 0 13.0213 0ZM 16.3936 13.0213C 16.3936 14.883 14.883 16.3936 13.0213 16.3936L 4.96809 16.3936C 3.10638 16.3936 1.59574 14.883 1.59574 13.0213L 1.59574 4.96809C 1.59574 3.10638 3.10638 1.59574 4.96809 1.59574L 13.0319 1.59574C 14.8936 1.59574 16.4043 3.10638 16.4043 4.96809L 16.3936 13.0213Z"/>
<path id="path1_fill" d="M 4.62766 0C 2.07447 0 0 2.07447 0 4.62766C 0 7.18085 2.07447 9.26596 4.6383 9.26596C 7.20213 9.26596 9.2766 7.19149 9.2766 4.62766C 9.26596 2.07447 7.19149 0 4.62766 0ZM 4.62766 7.67021C 2.95745 7.67021 1.58511 6.30851 1.58511 4.62766C 1.59574 2.95745 2.95745 1.59574 4.62766 1.59574C 6.29787 1.59574 7.67021 2.95745 7.67021 4.6383C 7.67021 6.30851 6.30851 7.67021 4.62766 7.67021Z"/>
<path id="path2_fill" d="M 1.17021 -8.11638e-08C 0.861702 -8.11638e-08 0.56383 0.12766 0.340425 0.340426C 0.117021 0.553191 1.62328e-07 0.861702 1.62328e-07 1.17021C 1.62328e-07 1.47872 0.127659 1.7766 0.340425 2C 0.553191 2.21277 0.861702 2.34043 1.17021 2.34043C 1.47872 2.34043 1.7766 2.21277 2 2C 2.2234 1.78723 2.34043 1.47872 2.34043 1.17021C 2.34043 0.861702 2.21277 0.56383 2 0.340426C 1.78723 0.117021 1.47872 -8.11638e-08 1.17021 -8.11638e-08Z"/>
</defs>
</svg>
