<?xml version="1.0" encoding="utf-8"?>
<!-- Generator: Adobe Illustrator 16.0.0, SVG Export Plug-In . SVG Version: 6.00 Build 0)  -->
<!DOCTYPE svg PUBLIC "-//W3C//DTD SVG 1.1//EN" "http://www.w3.org/Graphics/SVG/1.1/DTD/svg11.dtd">
<svg version="1.1" id="Layer_1" xmlns="http://www.w3.org/2000/svg" xmlns:xlink="http://www.w3.org/1999/xlink" x="0px" y="0px"
	 width="20.583px" height="20.583px" viewBox="0 681.417 20.583 20.583" enable-background="new 0 681.417 20.583 20.583"
	 xml:space="preserve">
<g transform="translate(1 1)">
	<g>
		<g>
			<path fill="#A06624" d="M13.717,680.417H4.866c-3.225,0-5.866,2.642-5.866,5.866v8.852C-1,698.358,1.642,701,4.866,701h8.851
				c3.225,0,5.866-2.642,5.866-5.865v-8.852C19.583,683.059,16.941,680.417,13.717,680.417z M18.897,695.135
				c0,2.847-2.333,5.179-5.18,5.179H4.866c-2.848,0-5.18-2.332-5.18-5.179v-8.852c0-2.848,2.333-5.18,5.18-5.18h8.851
				c2.848,0,5.18,2.332,5.18,5.18V695.135z"/>
			<path fill="#A06624" d="M13.717,682.476H4.866c-2.093,0-3.808,1.715-3.808,3.808v8.852c0,2.092,1.715,3.807,3.808,3.807h8.851
				c2.093,0,3.808-1.715,3.808-3.807v-8.852C17.524,684.19,15.81,682.476,13.717,682.476z M16.838,695.135
				c0,1.715-1.406,3.12-3.122,3.12H4.866c-1.715,0-3.122-1.405-3.122-3.12v-8.852c0-1.716,1.406-3.121,3.122-3.121h8.851
				c1.715,0,3.122,1.405,3.122,3.121V695.135L16.838,695.135z"/>
			<path fill="#A06624" d="M9.292,685.22c-3.019,0-5.489,2.47-5.489,5.489c0,3.019,2.47,5.488,5.489,5.488s5.489-2.47,5.489-5.488
				C14.78,687.689,12.31,685.22,9.292,685.22z M9.292,695.512c-2.642,0-4.803-2.162-4.803-4.803c0-2.642,2.161-4.804,4.803-4.804
				s4.803,2.162,4.803,4.804C14.094,693.35,11.933,695.512,9.292,695.512z"/>
			<path fill="#A06624" d="M9.292,686.936c-2.093,0-3.773,1.681-3.773,3.773c0,2.092,1.681,3.772,3.773,3.772
				s3.773-1.681,3.773-3.772C13.065,688.616,11.384,686.936,9.292,686.936z M9.292,693.796c-1.715,0-3.087-1.372-3.087-3.087
				c0-1.716,1.372-3.088,3.087-3.088s3.087,1.372,3.087,3.088C12.379,692.424,11.007,693.796,9.292,693.796z"/>
			<path fill="#A06624" d="M14.78,684.19c-0.583,0-1.029,0.446-1.029,1.029s0.446,1.029,1.029,1.029s1.029-0.446,1.029-1.029
				S15.364,684.19,14.78,684.19z"/>
		</g>
	</g>
</g>
</svg>
