<?xml version="1.0" encoding="utf-8"?>
<!-- Generator: Adobe Illustrator 16.0.0, SVG Export Plug-In . SVG Version: 6.00 Build 0)  -->
<!DOCTYPE svg PUBLIC "-//W3C//DTD SVG 1.1//EN" "http://www.w3.org/Graphics/SVG/1.1/DTD/svg11.dtd">
<svg version="1.1" id="Capa_1" xmlns="http://www.w3.org/2000/svg" xmlns:xlink="http://www.w3.org/1999/xlink" x="0px" y="0px"
	 width="25px" height="20.305px" viewBox="0 0 25 20.305" enable-background="new 0 0 25 20.305" xml:space="preserve">
<g>
	<g>
		<path fill="#A06624" d="M24.999,2.402c-0.92,0.407-1.908,0.684-2.945,0.807c1.059-0.634,1.869-1.64,2.254-2.834
			c-0.993,0.587-2.09,1.013-3.258,1.245C20.113,0.622,18.782,0,17.306,0c-2.832,0-5.128,2.296-5.128,5.127
			c0,0.4,0.045,0.793,0.133,1.168C8.049,6.081,4.271,4.039,1.742,0.938C1.3,1.694,1.049,2.574,1.049,3.515
			c0,1.778,0.906,3.349,2.28,4.268c-0.84-0.028-1.63-0.26-2.323-0.646v0.064c0,2.484,1.768,4.556,4.113,5.029
			c-0.43,0.115-0.883,0.18-1.351,0.18c-0.331,0-0.651-0.033-0.965-0.096c0.653,2.039,2.546,3.52,4.789,3.563
			c-1.754,1.373-3.966,2.191-6.368,2.191c-0.414,0-0.822-0.025-1.223-0.07c2.27,1.457,4.964,2.307,7.86,2.307
			c9.433,0,14.589-7.813,14.589-14.589l-0.017-0.664C23.44,4.332,24.312,3.429,24.999,2.402z"/>
	</g>
</g>
</svg>
