<svg width="22" height="18" viewBox="0 0 22 18" version="1.1" xmlns="http://www.w3.org/2000/svg" xmlns:xlink="http://www.w3.org/1999/xlink">
<title>Group</title>
<desc>Created using Figma</desc>
<g id="Canvas" transform="translate(-1329 -4526)">
<g id="Group">
<g id="Group">
<g id="Group">
<g id="Vector">
<use xlink:href="#path0_fill" transform="translate(1329 4526)" fill="#A06624"/>
</g>
</g>
</g>
</g>
</g>
<defs>
<path id="path0_fill" d="M 22 2.12872C 21.191 2.49075 20.321 2.73331 19.4077 2.84554C 20.3389 2.28439 21.0544 1.39019 21.3924 0.333065C 20.5187 0.854385 19.5516 1.23089 18.5233 1.43725C 17.7 0.550282 16.5279 0 15.2299 0C 12.7384 0 10.7142 2.03459 10.7142 4.54344C 10.7142 4.89823 10.7537 5.24578 10.8328 5.57884C 7.08286 5.39059 3.75715 3.58045 1.52803 0.829043C 1.13973 1.50241 0.920412 2.28077 0.920412 3.11344C 0.920412 4.69187 1.71858 6.08206 2.92662 6.89662C 2.18598 6.87128 1.49207 6.66854 0.880863 6.32462L 0.880863 6.38254C 0.880863 8.58367 2.43765 10.4228 4.50139 10.8391C 4.12388 10.9405 3.72479 10.9984 3.31133 10.9984C 3.0201 10.9984 2.73966 10.9694 2.46282 10.9151C 3.03808 12.7216 4.70273 14.0358 6.68018 14.072C 5.13777 15.292 3.18908 16.0161 1.07501 16.0161C 0.711881 16.0161 0.352345 15.9944 5.35739e-11 15.9545C 1.99902 17.247 4.36836 18 6.91747 18C 15.2192 18 19.7601 11.0744 19.7601 5.06838L 19.7457 4.47828C 20.6302 3.84111 21.396 3.04103 22 2.12872Z"/>
</defs>
</svg>
