<?xml version="1.0" encoding="utf-8"?>
<!-- Generator: Adobe Illustrator 16.0.0, SVG Export Plug-In . SVG Version: 6.00 Build 0)  -->
<!DOCTYPE svg PUBLIC "-//W3C//DTD SVG 1.1//EN" "http://www.w3.org/Graphics/SVG/1.1/DTD/svg11.dtd">
<svg version="1.1" id="Layer_1" xmlns="http://www.w3.org/2000/svg" xmlns:xlink="http://www.w3.org/1999/xlink" x="0px" y="0px"
	 width="48px" height="15px" viewBox="0 0 48 15" enable-background="new 0 0 48 15" xml:space="preserve">
<g>
	<defs>
		<rect id="SVGID_1_" width="48" height="15"/>
	</defs>
	<clipPath id="SVGID_2_">
		<use xlink:href="#SVGID_1_"  overflow="visible"/>
	</clipPath>
	<path clip-path="url(#SVGID_2_)" fill="#9C5F19" d="M28.092,13.557c-0.672,0-1.344,0-2.077-0.088L22.84,8.363h2.076L28.092,13.557z
		 M26.198,8.451h2.016l3.175,5.018c-0.672,0.088-1.282,0.088-1.954,0.088L26.198,8.451z M29.557,8.451h2.077l2.87,4.666
		c-0.611,0.088-1.282,0.176-1.893,0.264L29.557,8.451z M36.397,8.451h2.076l1.955,3.169c-0.55,0.177-1.099,0.353-1.71,0.528
		L36.397,8.451z M32.977,8.451h2.076l2.504,3.962c-0.611,0.176-1.221,0.264-1.832,0.439L32.977,8.451z M39.817,8.451h2.259
		l1.222,1.937c-0.55,0.265-1.16,0.528-1.771,0.793L39.817,8.451z M43.42,8.451h2.992c-0.488,0.44-1.221,0.969-2.076,1.408
		L43.42,8.451z M20.824,12.94c-0.916-0.176-1.832-0.352-2.687-0.527l-2.443-3.874h2.32L20.824,12.94z M24.611,13.381
		c-0.794-0.088-1.527-0.176-2.321-0.264l-2.992-4.754h2.137L24.611,13.381z M12.397,10.476C10.504,9.684,9.16,8.979,8.428,8.363
		h2.687L12.397,10.476z M16.489,11.885c-0.794-0.265-1.588-0.44-2.382-0.793l-1.71-2.641h1.893L16.489,11.885z M10.931,6.955H8.366
		c0.733-0.616,2.077-1.409,4.031-2.289L10.931,6.955z M14.168,6.955h-1.893l1.954-2.993c0.794-0.265,1.588-0.528,2.382-0.793
		L14.168,6.955z M17.649,6.955h-2.138l2.687-4.314c0.855-0.176,1.649-0.439,2.504-0.527L17.649,6.955z M21.252,6.955h-2.199
		l3.237-5.106c0.794-0.088,1.588-0.264,2.382-0.264L21.252,6.955z M24.672,6.955h-2.076l3.48-5.547c0.733,0,1.405-0.088,2.077-0.088
		h0.061L24.672,6.955z M29.496,1.408c0.672,0,1.344,0.089,2.015,0.177l-3.419,5.37h-2.138L29.496,1.408z M44.275,5.458
		c1.099,0.616,1.771,1.145,2.137,1.585h-3.114L44.275,5.458z M41.527,4.05c0.611,0.264,1.221,0.528,1.71,0.792l-1.344,2.113h-2.259
		L41.527,4.05z M38.84,3.081c0.549,0.176,1.099,0.353,1.588,0.528l-2.077,3.346h-1.954L38.84,3.081z M31.695,6.955h-2.199
		l3.298-5.282c0.672,0.088,1.343,0.176,2.015,0.352L31.695,6.955z M35.97,2.289c0.61,0.176,1.16,0.264,1.771,0.44l-2.687,4.226
		h-2.015L35.97,2.289z M32.244,14.79l0.061,0.176l0.122-0.176C41.038,13.821,48,10.124,48,7.747c0-1.408-2.137-2.905-3.908-3.873
		C42.076,2.641,36.275,0,28.092,0c-4.581,0-9.771,0.969-14.29,2.729l-0.061-0.089l-0.062,0.089
		c-3.603,1.408-6.106,2.904-6.778,4.226H0v1.408h6.901c1.465,2.641,11.42,6.603,21.313,6.603
		C29.557,15.054,30.901,14.966,32.244,14.79"/>
</g>
</svg>
