<svg width="26" height="25" viewBox="0 0 26 25" version="1.1" xmlns="http://www.w3.org/2000/svg" xmlns:xlink="http://www.w3.org/1999/xlink">
<title>Group</title>
<desc>Created using Figma</desc>
<g id="Canvas" transform="translate(-1150 -3682)">
<g id="Group">
<g id="Group">
<g id="Vector">
<use xlink:href="#path0_fill" transform="translate(1150 3682)" fill="#FFA800"/>
</g>
</g>
</g>
</g>
<defs>
<path id="path0_fill" d="M 26 9.69095C 26 9.30464 25.71 9.06181 25.1244 8.96799L 17.2823 7.82009L 13.7634 0.645695C 13.5664 0.215232 13.3092 0 12.9973 0C 12.6853 0 12.4281 0.215232 12.2311 0.645695L 8.71774 7.81457L 0.875605 8.96247C 0.290044 9.05629 0 9.29912 0 9.68543C 0 9.90618 0.131341 10.16 0.38855 10.4415L 6.07451 16.021L 4.73374 23.9018C 4.71185 24.0508 4.7009 24.1556 4.7009 24.2163C 4.7009 24.4371 4.75563 24.6247 4.86508 24.7737C 4.97453 24.9283 5.13871 25 5.35761 25C 5.54367 25 5.75163 24.9393 5.98148 24.8124L 12.9973 21.0927L 20.0131 24.8124C 20.232 24.9393 20.4399 25 20.6369 25C 21.0638 25 21.2772 24.7351 21.2772 24.2108C 21.2772 24.0728 21.2717 23.968 21.2608 23.8962L 19.92 16.0265L 25.5896 10.447C 25.8632 10.1711 26 9.92274 26 9.69095Z"/>
</defs>
</svg>
